<?xml version="1.0" standalone="no"?>
<!DOCTYPE svg PUBLIC "-//W3C//DTD SVG 20010904//EN"
 "http://www.w3.org/TR/2001/REC-SVG-20010904/DTD/svg10.dtd">
<svg version="1.0" xmlns="http://www.w3.org/2000/svg"
 width="512.000000pt" height="512.000000pt" viewBox="0 0 512.000000 512.000000"
 preserveAspectRatio="xMidYMid meet">

<g transform="translate(0.000000,512.000000) scale(0.100000,-0.100000)"
fill="#000000" stroke="none">
<path d="M712 4836 c-207 -51 -389 -237 -431 -444 -15 -75 -15 -3589 0 -3664
34 -164 159 -324 312 -397 45 -21 106 -44 135 -50 36 -8 346 -11 966 -11 l913
0 33 23 c48 32 72 69 77 119 7 58 -23 118 -74 149 l-38 24 -915 5 c-858 5
-917 6 -951 23 -47 23 -103 79 -126 126 -17 34 -18 116 -18 1821 0 1705 1
1787 18 1821 23 47 79 103 126 126 34 17 90 18 953 21 l917 2 3 -382 c3 -371
4 -385 26 -440 29 -71 74 -129 137 -174 87 -62 106 -64 527 -64 l378 0 0 -365
c0 -344 1 -368 20 -404 57 -113 223 -113 280 0 19 36 20 60 20 462 0 464 -2
486 -60 577 -16 25 -255 271 -532 546 -435 433 -511 505 -563 530 l-60 29
-1010 2 c-795 1 -1021 -1 -1063 -11z m2488 -791 l255 -255 -247 0 c-244 0
-247 0 -262 22 -13 19 -16 61 -16 255 0 128 3 233 8 233 4 0 122 -115 262
-255z"/>
<path d="M1215 3026 c-94 -41 -124 -168 -58 -247 52 -62 10 -59 978 -59 861 0
887 1 924 20 113 57 113 223 0 280 -37 19 -62 20 -926 20 -716 -1 -894 -3
-918 -14z"/>
<path d="M3631 2439 c-102 -18 -138 -60 -205 -239 -14 -36 -26 -50 -61 -69
-43 -23 -48 -23 -133 -12 -181 23 -208 14 -295 -103 -72 -98 -157 -268 -164
-330 -8 -66 0 -84 77 -185 65 -85 70 -96 70 -141 0 -45 -5 -56 -70 -141 -77
-101 -85 -119 -77 -185 12 -107 186 -392 261 -428 40 -19 79 -20 198 -5 84 11
90 11 132 -11 40 -22 46 -31 86 -127 72 -175 96 -188 360 -188 264 0 288 13
359 183 38 90 49 107 84 129 l40 25 112 -12 c140 -16 175 -10 224 39 85 85
209 309 218 395 8 65 1 82 -77 186 -63 84 -70 98 -70 140 0 42 7 56 70 140 78
104 85 120 77 187 -7 61 -101 248 -169 337 -83 107 -113 117 -290 95 -84 -11
-90 -11 -131 11 -39 21 -46 30 -87 129 -47 115 -79 154 -138 172 -49 14 -333
20 -401 8z m284 -399 c41 -97 69 -133 125 -156 19 -8 64 -34 100 -57 71 -46
104 -51 241 -33 l66 8 33 -56 32 -57 -55 -72 c-30 -40 -59 -82 -66 -94 -15
-29 -15 -297 0 -326 7 -12 36 -54 66 -94 l55 -72 -32 -57 -33 -56 -66 8 c-136
18 -170 13 -241 -33 -36 -23 -87 -51 -113 -63 -52 -25 -73 -54 -122 -172 l-28
-68 -67 0 -68 0 -27 67 c-46 116 -69 149 -127 177 -29 14 -78 41 -108 60 -68
45 -102 51 -196 37 -112 -16 -109 -17 -144 44 l-32 55 55 73 c30 39 60 82 66
95 16 31 16 293 0 324 -6 13 -36 56 -66 95 l-55 73 32 55 c35 61 32 60 144 44
94 -14 128 -8 196 37 30 19 79 46 108 60 58 28 81 61 127 177 l27 67 68 0 67
0 38 -90z"/>
<path d="M3734 1671 c-48 -12 -133 -62 -160 -94 -14 -17 -37 -53 -52 -81 -22
-43 -26 -64 -26 -136 -1 -78 2 -90 33 -148 38 -70 70 -100 145 -140 44 -22 63
-26 136 -26 69 0 94 4 135 24 64 31 124 91 155 155 35 72 35 198 0 270 -32 64
-92 124 -155 154 -54 26 -156 36 -211 22z"/>
<path d="M1200 2268 c-48 -33 -72 -70 -77 -120 -7 -58 23 -118 74 -149 l38
-24 525 0 525 0 38 24 c51 31 81 91 74 149 -5 50 -29 87 -77 120 l-33 22 -527
0 -527 0 -33 -22z"/>
<path d="M1227 1536 c-49 -18 -64 -32 -89 -80 -37 -73 -13 -153 62 -203 l33
-23 527 0 527 0 33 22 c48 33 72 70 77 120 7 58 -23 118 -74 149 l-38 24 -510
2 c-409 2 -517 0 -548 -11z"/>
</g>
</svg>
